<svg width="43" height="41" viewBox="0 0 43 41" fill="none" xmlns="http://www.w3.org/2000/svg">
<path opacity="0.989" fill-rule="evenodd" clip-rule="evenodd" d="M15.7326 0.557917C20.0644 0.371108 24.3649 0.63621 28.6342 1.35322C38.1155 3.62267 42.8283 9.66117 42.773 19.4685C42.7827 24.8289 41.2216 29.6598 38.0895 33.9608C34.2403 38.3293 29.3801 40.4796 23.5089 40.4116C18.2657 40.5295 13.0227 40.5295 7.77954 40.4116C13.2523 37.7063 16.6986 33.3763 18.1185 27.4216C18.5361 24.8497 18.3594 22.3166 17.5883 19.822C15.4203 13.8187 13.27 7.80969 11.1375 1.79506C11.1426 1.52483 11.2604 1.31858 11.491 1.17649C12.9248 0.936129 14.3387 0.730056 15.7326 0.557917Z" fill="#15707A"/>
<path opacity="0.972" fill-rule="evenodd" clip-rule="evenodd" d="M7.25268 9.74609C8.82919 12.605 10.2725 15.5504 11.5827 18.5828C12.8027 21.9931 12.0074 24.8502 9.19676 27.1545C6.57453 28.8 4.07079 28.6528 1.68554 26.7126C-0.13018 24.2055 -0.248009 21.6135 1.33207 18.9363C3.26341 15.8378 5.23695 12.7744 7.25268 9.74609Z" fill="#15707A"/>
</svg>
